<mxfile host="app.diagrams.net" modified="2022-03-19T07:19:14.260Z" agent="5.0 (Macintosh; Intel Mac OS X 10_15_7) AppleWebKit/605.1.15 (KHTML, like Gecko) Version/14.1.2 Safari/605.1.15" etag="Mqom4TbMRuf-WtHGXXgj" version="16.6.3" type="github" pages="4">
  <diagram id="AOVkWUKs_owXXxP2pkti" name="Left">
    <mxGraphModel dx="946" dy="1730" grid="1" gridSize="10" guides="1" tooltips="1" connect="1" arrows="1" fold="1" page="1" pageScale="1" pageWidth="827" pageHeight="1169" math="0" shadow="0">
      <root>
        <mxCell id="0" />
        <mxCell id="1" parent="0" />
        <mxCell id="8cc1V6GGrKPdFqDmhUYb-1" value="" style="rounded=0;whiteSpace=wrap;html=1;" vertex="1" parent="1">
          <mxGeometry x="200" y="-1080" width="360" height="400" as="geometry" />
        </mxCell>
        <mxCell id="8cc1V6GGrKPdFqDmhUYb-2" value="" style="rounded=0;whiteSpace=wrap;html=1;" vertex="1" parent="1">
          <mxGeometry x="490" y="-810" width="70" height="10" as="geometry" />
        </mxCell>
        <mxCell id="8cc1V6GGrKPdFqDmhUYb-3" value="" style="rounded=0;whiteSpace=wrap;html=1;" vertex="1" parent="1">
          <mxGeometry x="415" y="-800" width="15" height="120" as="geometry" />
        </mxCell>
        <mxCell id="8cc1V6GGrKPdFqDmhUYb-4" value="" style="rounded=0;whiteSpace=wrap;html=1;" vertex="1" parent="1">
          <mxGeometry x="280" y="-810" width="210" height="10" as="geometry" />
        </mxCell>
        <mxCell id="8cc1V6GGrKPdFqDmhUYb-6" value="" style="rounded=0;whiteSpace=wrap;html=1;" vertex="1" parent="1">
          <mxGeometry x="280" y="-800" width="15" height="120" as="geometry" />
        </mxCell>
        <mxCell id="QfxGn3TjKdY_CHIhq9DI-1" value="" style="shape=or;whiteSpace=wrap;html=1;rotation=89;" vertex="1" parent="1">
          <mxGeometry x="512.37" y="-822.59" width="25" height="70" as="geometry" />
        </mxCell>
        <mxCell id="QfxGn3TjKdY_CHIhq9DI-2" value="" style="endArrow=none;dashed=1;html=1;rounded=0;entryX=1;entryY=1;entryDx=0;entryDy=0;exitX=0.814;exitY=0.998;exitDx=0;exitDy=0;exitPerimeter=0;" edge="1" parent="1" source="8cc1V6GGrKPdFqDmhUYb-1" target="8cc1V6GGrKPdFqDmhUYb-4">
          <mxGeometry width="50" height="50" relative="1" as="geometry">
            <mxPoint x="500" y="-670" as="sourcePoint" />
            <mxPoint x="430" y="-950" as="targetPoint" />
            <Array as="points" />
          </mxGeometry>
        </mxCell>
        <mxCell id="QfxGn3TjKdY_CHIhq9DI-4" value="" style="whiteSpace=wrap;html=1;aspect=fixed;" vertex="1" parent="1">
          <mxGeometry x="472.37" y="-930" width="40" height="40" as="geometry" />
        </mxCell>
        <mxCell id="QfxGn3TjKdY_CHIhq9DI-5" value="" style="rounded=0;whiteSpace=wrap;html=1;" vertex="1" parent="1">
          <mxGeometry x="280" y="-940" width="100" height="80" as="geometry" />
        </mxCell>
        <mxCell id="QfxGn3TjKdY_CHIhq9DI-6" value="" style="rounded=0;whiteSpace=wrap;html=1;" vertex="1" parent="1">
          <mxGeometry x="388.5" y="-940" width="61.5" height="80" as="geometry" />
        </mxCell>
        <mxCell id="QfxGn3TjKdY_CHIhq9DI-9" value="" style="rounded=0;whiteSpace=wrap;html=1;" vertex="1" parent="1">
          <mxGeometry x="285" y="-935" width="90" height="70" as="geometry" />
        </mxCell>
        <mxCell id="QfxGn3TjKdY_CHIhq9DI-10" value="" style="endArrow=none;html=1;rounded=0;exitX=0;exitY=0.5;exitDx=0;exitDy=0;entryX=1;entryY=0.5;entryDx=0;entryDy=0;" edge="1" parent="1">
          <mxGeometry width="50" height="50" relative="1" as="geometry">
            <mxPoint x="284" y="-900" as="sourcePoint" />
            <mxPoint x="378" y="-900" as="targetPoint" />
          </mxGeometry>
        </mxCell>
        <mxCell id="QfxGn3TjKdY_CHIhq9DI-11" value="" style="rounded=0;whiteSpace=wrap;html=1;" vertex="1" parent="1">
          <mxGeometry x="388.5" y="-940" width="20" height="40" as="geometry" />
        </mxCell>
        <mxCell id="QfxGn3TjKdY_CHIhq9DI-12" value="" style="rounded=0;whiteSpace=wrap;html=1;" vertex="1" parent="1">
          <mxGeometry x="408.5" y="-940" width="20" height="40" as="geometry" />
        </mxCell>
        <mxCell id="QfxGn3TjKdY_CHIhq9DI-14" value="" style="rounded=0;whiteSpace=wrap;html=1;" vertex="1" parent="1">
          <mxGeometry x="428.5" y="-940" width="20" height="40" as="geometry" />
        </mxCell>
        <mxCell id="QfxGn3TjKdY_CHIhq9DI-15" value="" style="rounded=0;whiteSpace=wrap;html=1;" vertex="1" parent="1">
          <mxGeometry x="388.5" y="-900" width="20" height="40" as="geometry" />
        </mxCell>
        <mxCell id="QfxGn3TjKdY_CHIhq9DI-16" value="" style="rounded=0;whiteSpace=wrap;html=1;" vertex="1" parent="1">
          <mxGeometry x="428.5" y="-900" width="20" height="40" as="geometry" />
        </mxCell>
        <mxCell id="QfxGn3TjKdY_CHIhq9DI-17" value="" style="endArrow=none;html=1;rounded=0;exitX=0;exitY=0.5;exitDx=0;exitDy=0;entryX=1;entryY=0.5;entryDx=0;entryDy=0;" edge="1" parent="1">
          <mxGeometry width="50" height="50" relative="1" as="geometry">
            <mxPoint x="284" y="-897" as="sourcePoint" />
            <mxPoint x="378" y="-897" as="targetPoint" />
          </mxGeometry>
        </mxCell>
      </root>
    </mxGraphModel>
  </diagram>
  <diagram id="hOyrrYGilYqvDVZi6s8q" name="Back">
    <mxGraphModel dx="946" dy="561" grid="1" gridSize="10" guides="1" tooltips="1" connect="1" arrows="1" fold="1" page="1" pageScale="1" pageWidth="583" pageHeight="827" math="0" shadow="0">
      <root>
        <mxCell id="XP-R2B7c1pQU9v1Gp7P8-0" />
        <mxCell id="XP-R2B7c1pQU9v1Gp7P8-1" parent="XP-R2B7c1pQU9v1Gp7P8-0" />
        <mxCell id="XP-R2B7c1pQU9v1Gp7P8-2" value="" style="rounded=0;whiteSpace=wrap;html=1;" vertex="1" parent="XP-R2B7c1pQU9v1Gp7P8-1">
          <mxGeometry x="120" y="40" width="400" height="400" as="geometry" />
        </mxCell>
        <mxCell id="XP-R2B7c1pQU9v1Gp7P8-3" value="" style="rounded=0;whiteSpace=wrap;html=1;" vertex="1" parent="XP-R2B7c1pQU9v1Gp7P8-1">
          <mxGeometry x="120" y="320" width="50" height="120" as="geometry" />
        </mxCell>
        <mxCell id="PvCh5BSLt8ircemAAGpS-1" value="" style="rounded=0;whiteSpace=wrap;html=1;" vertex="1" parent="XP-R2B7c1pQU9v1Gp7P8-1">
          <mxGeometry x="320" y="220" width="70" height="220" as="geometry" />
        </mxCell>
        <mxCell id="PvCh5BSLt8ircemAAGpS-2" value="" style="rounded=0;whiteSpace=wrap;html=1;" vertex="1" parent="XP-R2B7c1pQU9v1Gp7P8-1">
          <mxGeometry x="120" y="180" width="190" height="80" as="geometry" />
        </mxCell>
        <mxCell id="PvCh5BSLt8ircemAAGpS-3" value="" style="rounded=0;whiteSpace=wrap;html=1;" vertex="1" parent="XP-R2B7c1pQU9v1Gp7P8-1">
          <mxGeometry x="320" y="180" width="70" height="30" as="geometry" />
        </mxCell>
        <mxCell id="PvCh5BSLt8ircemAAGpS-4" value="" style="rounded=0;whiteSpace=wrap;html=1;" vertex="1" parent="XP-R2B7c1pQU9v1Gp7P8-1">
          <mxGeometry x="230" y="320" width="80" height="120" as="geometry" />
        </mxCell>
        <mxCell id="PvCh5BSLt8ircemAAGpS-5" value="" style="rounded=0;whiteSpace=wrap;html=1;" vertex="1" parent="XP-R2B7c1pQU9v1Gp7P8-1">
          <mxGeometry x="230" y="270" width="80" height="40" as="geometry" />
        </mxCell>
        <mxCell id="PvCh5BSLt8ircemAAGpS-9" value="" style="group" vertex="1" connectable="0" parent="XP-R2B7c1pQU9v1Gp7P8-1">
          <mxGeometry x="400" y="180" width="120" height="260" as="geometry" />
        </mxCell>
        <mxCell id="PvCh5BSLt8ircemAAGpS-0" value="" style="rounded=0;whiteSpace=wrap;html=1;" vertex="1" parent="PvCh5BSLt8ircemAAGpS-9">
          <mxGeometry width="120" height="260" as="geometry" />
        </mxCell>
        <mxCell id="PvCh5BSLt8ircemAAGpS-8" value="" style="rounded=0;whiteSpace=wrap;html=1;" vertex="1" parent="PvCh5BSLt8ircemAAGpS-9">
          <mxGeometry x="10" y="10" width="100" height="250" as="geometry" />
        </mxCell>
        <mxCell id="PvCh5BSLt8ircemAAGpS-18" value="" style="rounded=0;whiteSpace=wrap;html=1;" vertex="1" parent="XP-R2B7c1pQU9v1Gp7P8-1">
          <mxGeometry x="170" y="320" width="6" height="120" as="geometry" />
        </mxCell>
        <mxCell id="PvCh5BSLt8ircemAAGpS-19" value="" style="rounded=0;whiteSpace=wrap;html=1;" vertex="1" parent="XP-R2B7c1pQU9v1Gp7P8-1">
          <mxGeometry x="230" y="320" width="6" height="120" as="geometry" />
        </mxCell>
        <mxCell id="PvCh5BSLt8ircemAAGpS-20" value="" style="rounded=0;whiteSpace=wrap;html=1;" vertex="1" parent="XP-R2B7c1pQU9v1Gp7P8-1">
          <mxGeometry x="230" y="270" width="10" height="40" as="geometry" />
        </mxCell>
        <mxCell id="PvCh5BSLt8ircemAAGpS-22" value="" style="rounded=0;whiteSpace=wrap;html=1;" vertex="1" parent="XP-R2B7c1pQU9v1Gp7P8-1">
          <mxGeometry x="130" y="190" width="70" height="60" as="geometry" />
        </mxCell>
        <mxCell id="PvCh5BSLt8ircemAAGpS-24" value="" style="rounded=0;whiteSpace=wrap;html=1;" vertex="1" parent="XP-R2B7c1pQU9v1Gp7P8-1">
          <mxGeometry x="210" y="190" width="90" height="30" as="geometry" />
        </mxCell>
        <mxCell id="PvCh5BSLt8ircemAAGpS-25" value="" style="rounded=0;whiteSpace=wrap;html=1;" vertex="1" parent="XP-R2B7c1pQU9v1Gp7P8-1">
          <mxGeometry x="210" y="225" width="90" height="25" as="geometry" />
        </mxCell>
        <mxCell id="PvCh5BSLt8ircemAAGpS-26" value="" style="rounded=0;whiteSpace=wrap;html=1;" vertex="1" parent="XP-R2B7c1pQU9v1Gp7P8-1">
          <mxGeometry x="140" y="60" width="360" height="90" as="geometry" />
        </mxCell>
        <mxCell id="PvCh5BSLt8ircemAAGpS-27" value="" style="shape=image;html=1;verticalAlign=top;verticalLabelPosition=bottom;labelBackgroundColor=#ffffff;imageAspect=0;image=https://cdn3.iconfinder.com/data/icons/furniture-4-4/512/furniture_living_room_home_house_offie-19-128.png" vertex="1" parent="XP-R2B7c1pQU9v1Gp7P8-1">
          <mxGeometry x="230" y="260" width="90" height="60" as="geometry" />
        </mxCell>
        <mxCell id="PvCh5BSLt8ircemAAGpS-29" value="" style="shape=image;html=1;verticalAlign=top;verticalLabelPosition=bottom;labelBackgroundColor=#ffffff;imageAspect=0;image=https://cdn0.iconfinder.com/data/icons/gcons-2/21/refrigerator1-128.png" vertex="1" parent="XP-R2B7c1pQU9v1Gp7P8-1">
          <mxGeometry x="310" y="230" width="100" height="210" as="geometry" />
        </mxCell>
      </root>
    </mxGraphModel>
  </diagram>
  <diagram id="lUEKddpyLiBwTI6iWGdn" name="Front">
    <mxGraphModel dx="946" dy="561" grid="1" gridSize="10" guides="1" tooltips="1" connect="1" arrows="1" fold="1" page="1" pageScale="1" pageWidth="583" pageHeight="827" math="0" shadow="0">
      <root>
        <mxCell id="JsdsPf47nhkl6hmrhGeH-0" />
        <mxCell id="JsdsPf47nhkl6hmrhGeH-1" parent="JsdsPf47nhkl6hmrhGeH-0" />
        <mxCell id="JsdsPf47nhkl6hmrhGeH-13" value="" style="rounded=0;whiteSpace=wrap;html=1;" vertex="1" parent="JsdsPf47nhkl6hmrhGeH-1">
          <mxGeometry x="80" y="240" width="400" height="400" as="geometry" />
        </mxCell>
        <mxCell id="JsdsPf47nhkl6hmrhGeH-14" value="" style="rounded=0;whiteSpace=wrap;html=1;" vertex="1" parent="JsdsPf47nhkl6hmrhGeH-1">
          <mxGeometry x="80" y="520" width="50" height="120" as="geometry" />
        </mxCell>
        <mxCell id="JsdsPf47nhkl6hmrhGeH-15" value="" style="rounded=0;whiteSpace=wrap;html=1;" vertex="1" parent="JsdsPf47nhkl6hmrhGeH-1">
          <mxGeometry x="130" y="520" width="170" height="10" as="geometry" />
        </mxCell>
        <mxCell id="JsdsPf47nhkl6hmrhGeH-16" value="" style="rounded=0;whiteSpace=wrap;html=1;" vertex="1" parent="JsdsPf47nhkl6hmrhGeH-1">
          <mxGeometry x="130" y="540" width="170" height="40" as="geometry" />
        </mxCell>
        <mxCell id="JsdsPf47nhkl6hmrhGeH-17" value="" style="rounded=0;whiteSpace=wrap;html=1;" vertex="1" parent="JsdsPf47nhkl6hmrhGeH-1">
          <mxGeometry x="130" y="590" width="170" height="50" as="geometry" />
        </mxCell>
        <mxCell id="JsdsPf47nhkl6hmrhGeH-18" value="" style="rounded=0;whiteSpace=wrap;html=1;" vertex="1" parent="JsdsPf47nhkl6hmrhGeH-1">
          <mxGeometry x="430" y="520" width="50" height="120" as="geometry" />
        </mxCell>
        <mxCell id="JsdsPf47nhkl6hmrhGeH-19" value="" style="rounded=0;whiteSpace=wrap;html=1;" vertex="1" parent="JsdsPf47nhkl6hmrhGeH-1">
          <mxGeometry x="310" y="520" width="50" height="120" as="geometry" />
        </mxCell>
        <mxCell id="JsdsPf47nhkl6hmrhGeH-20" value="" style="rounded=0;whiteSpace=wrap;html=1;" vertex="1" parent="JsdsPf47nhkl6hmrhGeH-1">
          <mxGeometry x="350" y="520" width="10" height="120" as="geometry" />
        </mxCell>
        <mxCell id="JsdsPf47nhkl6hmrhGeH-21" value="" style="rounded=0;whiteSpace=wrap;html=1;" vertex="1" parent="JsdsPf47nhkl6hmrhGeH-1">
          <mxGeometry x="420" y="520" width="10" height="120" as="geometry" />
        </mxCell>
        <mxCell id="JsdsPf47nhkl6hmrhGeH-22" value="" style="rounded=0;whiteSpace=wrap;html=1;" vertex="1" parent="JsdsPf47nhkl6hmrhGeH-1">
          <mxGeometry x="130" y="520" width="10" height="120" as="geometry" />
        </mxCell>
        <mxCell id="JsdsPf47nhkl6hmrhGeH-23" value="" style="rounded=0;whiteSpace=wrap;html=1;" vertex="1" parent="JsdsPf47nhkl6hmrhGeH-1">
          <mxGeometry x="290" y="360" width="190" height="150" as="geometry" />
        </mxCell>
        <mxCell id="JsdsPf47nhkl6hmrhGeH-24" value="" style="rounded=0;whiteSpace=wrap;html=1;" vertex="1" parent="JsdsPf47nhkl6hmrhGeH-1">
          <mxGeometry x="300" y="370" width="80" height="140" as="geometry" />
        </mxCell>
        <mxCell id="JsdsPf47nhkl6hmrhGeH-25" value="" style="rounded=0;whiteSpace=wrap;html=1;" vertex="1" parent="JsdsPf47nhkl6hmrhGeH-1">
          <mxGeometry x="390" y="370" width="80" height="140" as="geometry" />
        </mxCell>
      </root>
    </mxGraphModel>
  </diagram>
  <diagram id="2FZxGLO2xAp1rGJky6ng" name="Right">
    <mxGraphModel dx="946" dy="2215" grid="1" gridSize="10" guides="1" tooltips="1" connect="1" arrows="1" fold="1" page="1" pageScale="1" pageWidth="583" pageHeight="827" math="0" shadow="0">
      <root>
        <mxCell id="AIXqKGwy0rLYTsx4YdkE-0" />
        <mxCell id="AIXqKGwy0rLYTsx4YdkE-1" parent="AIXqKGwy0rLYTsx4YdkE-0" />
        <mxCell id="h-HH9ukIUvakR_ugbnvi-0" value="" style="rounded=0;whiteSpace=wrap;html=1;" vertex="1" parent="AIXqKGwy0rLYTsx4YdkE-1">
          <mxGeometry x="120" y="-1560" width="360" height="400" as="geometry" />
        </mxCell>
        <mxCell id="h-HH9ukIUvakR_ugbnvi-1" value="" style="rounded=0;whiteSpace=wrap;html=1;" vertex="1" parent="AIXqKGwy0rLYTsx4YdkE-1">
          <mxGeometry x="120" y="-1260" width="360" height="100" as="geometry" />
        </mxCell>
        <mxCell id="h-HH9ukIUvakR_ugbnvi-3" value="" style="rounded=0;whiteSpace=wrap;html=1;" vertex="1" parent="AIXqKGwy0rLYTsx4YdkE-1">
          <mxGeometry x="120" y="-1266" width="360" height="6" as="geometry" />
        </mxCell>
        <mxCell id="h-HH9ukIUvakR_ugbnvi-5" value="" style="shape=image;html=1;verticalAlign=top;verticalLabelPosition=bottom;labelBackgroundColor=#ffffff;imageAspect=0;image=https://cdn2.iconfinder.com/data/icons/toilet/520/12-128.png" vertex="1" parent="AIXqKGwy0rLYTsx4YdkE-1">
          <mxGeometry x="120" y="-1284" width="60" height="50" as="geometry" />
        </mxCell>
        <mxCell id="h-HH9ukIUvakR_ugbnvi-6" value="" style="rounded=0;whiteSpace=wrap;html=1;" vertex="1" parent="AIXqKGwy0rLYTsx4YdkE-1">
          <mxGeometry x="430" y="-1260" width="50" height="100" as="geometry" />
        </mxCell>
        <mxCell id="h-HH9ukIUvakR_ugbnvi-7" value="" style="rounded=0;whiteSpace=wrap;html=1;" vertex="1" parent="AIXqKGwy0rLYTsx4YdkE-1">
          <mxGeometry x="424" y="-1260" width="6" height="100" as="geometry" />
        </mxCell>
        <mxCell id="MEXEUf9QL6HMLlRWO3Dx-0" value="" style="rounded=0;whiteSpace=wrap;html=1;" vertex="1" parent="AIXqKGwy0rLYTsx4YdkE-1">
          <mxGeometry x="180" y="-1260" width="6" height="100" as="geometry" />
        </mxCell>
        <mxCell id="MEXEUf9QL6HMLlRWO3Dx-4" value="" style="rounded=0;whiteSpace=wrap;html=1;" vertex="1" parent="AIXqKGwy0rLYTsx4YdkE-1">
          <mxGeometry x="350" y="-1260" width="10" height="100" as="geometry" />
        </mxCell>
        <mxCell id="MEXEUf9QL6HMLlRWO3Dx-5" value="" style="rounded=0;whiteSpace=wrap;html=1;" vertex="1" parent="AIXqKGwy0rLYTsx4YdkE-1">
          <mxGeometry x="240" y="-1260" width="10" height="100" as="geometry" />
        </mxCell>
        <mxCell id="MEXEUf9QL6HMLlRWO3Dx-7" value="" style="rounded=0;whiteSpace=wrap;html=1;" vertex="1" parent="AIXqKGwy0rLYTsx4YdkE-1">
          <mxGeometry x="186" y="-1260" width="54" height="30" as="geometry" />
        </mxCell>
        <mxCell id="MEXEUf9QL6HMLlRWO3Dx-8" value="" style="rounded=0;whiteSpace=wrap;html=1;" vertex="1" parent="AIXqKGwy0rLYTsx4YdkE-1">
          <mxGeometry x="360" y="-1260" width="64" height="30" as="geometry" />
        </mxCell>
        <mxCell id="MEXEUf9QL6HMLlRWO3Dx-9" value="" style="rounded=0;whiteSpace=wrap;html=1;" vertex="1" parent="AIXqKGwy0rLYTsx4YdkE-1">
          <mxGeometry x="250" y="-1260" width="100" height="50" as="geometry" />
        </mxCell>
        <mxCell id="MEXEUf9QL6HMLlRWO3Dx-10" value="" style="rounded=0;whiteSpace=wrap;html=1;" vertex="1" parent="AIXqKGwy0rLYTsx4YdkE-1">
          <mxGeometry x="360" y="-1194" width="64" height="34" as="geometry" />
        </mxCell>
        <mxCell id="MEXEUf9QL6HMLlRWO3Dx-13" value="" style="verticalLabelPosition=bottom;verticalAlign=top;html=1;shape=mxgraph.basic.partConcEllipse;startAngle=0.23136156442289743;endAngle=0.4492697501605719;arcWidth=0.1;rotation=0;" vertex="1" parent="AIXqKGwy0rLYTsx4YdkE-1">
          <mxGeometry x="64" y="-1285" width="88.5" height="125" as="geometry" />
        </mxCell>
      </root>
    </mxGraphModel>
  </diagram>
</mxfile>
